<svg version="1.2" xmlns="http://www.w3.org/2000/svg" viewBox="0 0 1700 1700" width="1700" height="1700">
	<title>logo-ai</title>
	<style>
		.s0 { fill: #ffffff } 
		.s1 { fill: #d72c34 } 
		.s2 { fill: #262659 } 
	</style>
	<g id="_Artboards_">
		<path id="Forma 1" class="s0" d=""/>
		<path id="Forma 2" class="s0" d="m14 46c0-12.7 10.3-23 23-23h1625c12.7 0 23 10.3 23 23v1609c0 12.7-10.3 23-23 23h-1625c-12.7 0-23-10.3-23-23z"/>
	</g>
	<g id="Capa 1">
		<g id="&lt;Group&gt;">
			<g id="&lt;Group&gt;">
				<g id="&lt;Group&gt;">
					<g id="&lt;Group&gt;">
					</g>
					<g id="&lt;Group&gt;">
					</g>
					<g id="&lt;Group&gt;">
					</g>
				</g>
				<g id="&lt;Group&gt;">
					<g id="&lt;Group&gt;">
					</g>
					<g id="&lt;Group&gt;">
					</g>
					<g id="&lt;Group&gt;">
					</g>
					<g id="&lt;Group&gt;">
					</g>
				</g>
				<g id="&lt;Group&gt;">
					<g id="&lt;Group&gt;">
					</g>
				</g>
				<g id="&lt;Group&gt;">
					<g id="&lt;Group&gt;">
					</g>
				</g>
			</g>
			<g id="&lt;Group&gt;">
			</g>
		</g>
		<g id="&lt;Group&gt;">
			<g id="&lt;Group&gt;">
				<g id="&lt;Group&gt;">
					<path id="&lt;Path&gt;" class="s1" d="m1109.8 1560.4c-5.5-2.5-13.9-5.9-24.6-8.5-7.4-1.8-16.6-9.6-23.6-22.3-7.8-14.1-15.7-28.3-20.4-44.4-4.7-16.1-10.9-44-10.4-62 0.5-17.9 4.4-47.8 11.8-61.4 8-14.6 21.2-34 24.7-38 4.5-4.9 20.8-30.9 24.5-35.3 8.5-9.9-2.4-37.8-24.6-23.2-22.2 14.7-28.5 26.8-37.3 37.1-6.7 7.8-38.2 56.3-44.9 79.6-6.7 23.3-7.1 49.3-6.7 56.4 0.5 7.1 5.7 38.8 10.9 52.9 5.2 14.2 22.2 46.4 24.6 52.5 2.4 6.2 2.4 11.8-4.3 13.7-6.6 1.9-19.9 3.1-33.5 7.4-15.6 4.9-35.3 14.4-49.8 22.1-11.9 6.4-35.6 31.1-37.9 40.5-2.4 9.5-3.1 22.7 3.5 30.3 6.6 7.5 22.2 14.2 36.9 16.1 14.6 1.9 41.1 0.4 54.4-2.4 13.2-2.8 48.7-12.8 60-17.5 25.1-10.4 43.5-26 53.9-32.2 10.4-6.1 16.6-16 21.8-23.1 5.2-7.1 4.7-13.3 3.3-19.4-1.4-6.1-3.8-15.1-12.3-18.9z"/>
				</g>
				<g id="&lt;Group&gt;">
					<path id="&lt;Path&gt;" class="s1" d="m772.9 1504.6c-5.2-2.9-13.2-7.3-23.6-11-7.1-2.6-15.5-11.2-21.2-24.6-6.3-14.8-12.6-29.8-15.6-46.3-3-16.5-6.2-44.9-3.9-62.7 2.4-17.8 9.4-47.1 18.2-59.9 9.4-13.7 19.8-26.9 23.2-31 19.4-22.6-4.6-54.8-38.9-17.2-6.9 7.5-34.6 39.8-43.7 62.3-9.1 22.5-12.3 48.3-12.5 55.4-0.3 7.1 1.6 39.1 5.3 53.8 3.7 14.6 17.2 48.4 18.9 54.7 1.7 6.4 1.1 12.1-5.6 13.2-6.8 1.2-20.1 1-34.1 3.8-16.1 3.3-36.7 10.7-51.9 16.9-12.5 5.1-38.6 27.1-42 36.3-3.3 9.1-5.4 22.2 0.4 30.4 5.8 8.3 20.6 16.5 35 19.9 14.4 3.4 40.9 4.7 54.3 3.3 13.5-1.4 49.8-7.6 61.6-11.1 26-7.7 46-21.3 57-26.4 10.9-5 18.1-14.2 24-20.7 5.9-6.5 6.1-12.7 5.3-19-0.8-6.2-2.2-15.4-10.2-20.1z"/>
				</g>
				<g id="&lt;Group&gt;">
					<path id="&lt;Path&gt;" class="s1" d="m1133.1 1047.8c-25.5-23.6-81.5-47.3-109.8-69.5-15.4-12-44.1-40-51.1-44-9.2-5.2-16.4 2.2-19.4 6.2-11 14.1-49.8 53.2-105.5 73.3-59.2 21.2-123.5 20.6-134.8 20.3-11.3-0.3-18.5 10.4-21.3 19.8-2.8 9.5-18.4 122.7-5.6 168.9 1.5 5.1 3.4 10 5 14.9 1.2 3.7 5.9 6.4 11.5 0 5.5-6.3 11.8-10.4 15.7-12.3 7.6-3.8 20.4-5.8 28.8-4.5 12.3 1.9 16.9 7.4 19.9 10.6 5.9 6.5 7.7 15.4 6.8 23.2-1.1 9.8-6.6 16.3-9.4 21-2.8 4.7-10.4 15.6-13.7 19.4-0.7 0.7-1.6 2.5-3.2 4.4-2.5 3.1 1 8.6 3.3 10.3 6.7 5 13.9 10 21.9 15.1 28.7 18.4 92.3 46.9 150.8 54.8 3.6 0.5 7.3 0.7 10.9 1.3 13 1.9 25-6.2 29.2-10.4 5-5 9.4-10.7 12.6-15.7 5.4-8.1 21.8-37.8 27-46.8 5.2-9 12.6-20.9 17.2-27.5 6-8.5 11.9-15.9 8-21.4-4.6-6.5-2.5-25.2 3.9-34.4 4.6-6.8 18.2-13.9 29.8-16.2 15.2-3.1 37.1 1.1 47.5 7.3 10.4 6.2 23 18.4 30.1 31.2 7.1 12.8 7.2 33.9 6 41.5-1 7-6 19.4-18 23.2-10 3.2-16.1 1.9-23.5 2.3-5.7 0.4-12.2 5.9-16.1 11.3-2.4 3.3-13.7 20.3-22.3 33.5-4.3 6.5-0.5 11.3 2.4 10.4 11.2-3.2 28.8 1.2 71.9-33.1 42.5-33.8 59.3-79.9 66.2-111.4 4.2-19.6 5.9-67.8-7.6-96.8-19-41-39.6-56.6-65.1-80.2z"/>
				</g>
				<path id="&lt;Path&gt;" class="s1" d="m1108.3 1284.4c1.8-5.6 0.2-11.7-1-15-1.2-3.2-7-10.9-16.1-15.8-9.2-5-19.5-7.8-26-4.9-6.1 2.8-9.9 8.2-15.5 10-5.5 1.8-16.4-5.6-13.3-13.4 3.1-7.8 10.8-15.3 17.2-17.6 5.4-1.9 19.2-4 27.9-2.3 10.5 2 27.6 11 35.5 17.7 8.6 7.2 14.8 21.3 15.8 27.9 1.1 7.7-0.5 19.9-6.5 27.6-5.7 7.4-17.3 2.6-19.1-1.9-2.2-5.7 0-8.9 1.1-12.3z"/>
			</g>
			<g id="&lt;Group&gt;">
				<g id="&lt;Group&gt;">
					<path id="&lt;Path&gt;" class="s1" d="m676.6 899.6c0.3-19.3-1.6-30.3-4.5-44q-0.6-2.6-1.3-5.3c-10.8 6.8-29.5 18-37.3 21.8-16.9 8.3-52 21.3-83.5 24.9-45.5 5.2-63 4.4-93.3 5.7-25.4 1.2-34.8-3-46.1-17.1-23.6-29.3-52.9-46.8-81.7-64.4-24.6-15.2-34.3 14.7-9.4 29.9 27.9 17 17.5 14.1-2.8 9-11.7-3-19-4.4-42.7-10.1-67.2-16.1-73.3 46.2-45.2 71.3 23 20.6 82.2 30.5 124.6 29.5 34.3-0.8 113-4.3 129.4-5.4 46.2-3 101.8-8.6 135.5-18.6 16.6-4.9 38.3-15.2 58.3-27.2z"/>
				</g>
				<g id="&lt;Group&gt;">
					<path id="&lt;Path&gt;" class="s1" d="m914 696.7c-8.5-7.6-25-7.3-35.4-1.7-10.4 5.7-77.5 47.8-96.6 56-19.5 8.4-58.1 23.2-74.3 29.4-6.8 2.6-23.9 9.9-23 30.7 1 20.8 7.6 61.5 10.4 78.5 2.9 17-8.6 79.5-9.5 92-0.5 7.8-4.7 19.9 10.4 24.6 15.2 4.7 72.9 9.4 108.8-3.8 35.9-13.2 76.4-36.5 93.5-48.2 20.5-14.1 34.2-31.6 42.7-44.4 4.2-6.3-8.7 1.6-26.6 1.8-8.2 0.1-22-3.3-32.3-14.9-21.6-24.4-22.3-53.7-23.4-70.9-1.5-24 5.1-57.6 26.9-69.5 24.9-13.5 46.7-11 58.2-5 4.7-1.4-21.3-47-29.8-54.6z"/>
				</g>
				<g id="&lt;Group&gt;">
					<path id="&lt;Path&gt;" class="s1" d="m924.8 788.8c4.6-0.8 9.7-0.3 14.7-6 4.1-4.7 2.3-19.9-9.7-21.7-12.5-2-27.4 3.3-35.6 9.1-6.8 4.9-19 19.9-22 33.4-2.7 12.4-2.2 36.1 2 48.7 3.6 10.4 14.5 24.1 20.1 28.8 6.7 5.6 20 9.5 30.8 8.3 12.5-1.4 12.5-17.4 7-22.3-5.5-4.9-14.1-5.8-21-10.8-7.4-5.3-10.7-18.2-10.7-30.9-0.1-12.8 5-23.5 8-26.7 2.9-3.3 8.9-8.6 16.4-9.9z"/>
				</g>
				<g id="&lt;Group&gt;">
					<path id="&lt;Path&gt;" class="s1" d="m1246.8 527.2c-14.6 19.5-20.3 31.3-25.8 41-15.5 27.1-18 9-11.6-22.6 6.2-30.7-14.5-34.4-29.1-6.9-11.5 21.9-21.4 71.3-11.8 107.7 6.1 23.3 9 31.2-12.2 50.7-22.2 20.6-35.9 35.1-73.8 60.9-26.2 17.8-61.3 30.8-79.5 35.6-11 2.9-44.6 8.3-51.1 9-28.3 2.9-27.4 45-1.3 44.1 32-1.1 74.9-10.5 99.6-21.6 32.1-14.4 83.3-42.6 113.2-76.4 10.7-11.9 40.9-45.7 45.4-52.6 4.4-6.8 18.8-3.1 48.7-19.9 48.2-27.2 67.6-101.4 68-119.9 0.9-40.7-47.8-70.3-78.7-29.1z"/>
				</g>
			</g>
			<g id="&lt;Group&gt;">
				<path id="&lt;Path&gt;" class="s2" d="m981.4 1507.7c-39.4 9.3-80.5 14.3-122.7 14.3-20.6 0-40.9-1.2-60.9-3.5 0.3 1.7 0.5 3.2 0.6 4.5 1 8.4 1 19.5-9 30.4q-1.1 1.2-2.3 2.6c-5.9 6.7-14.1 15.9-26.4 21.6-2.6 1.2-6.3 3.2-10.5 5.5-10.1 5.6-23.5 12.9-39.7 18.7 47.5 11.5 97.1 17.7 148.2 17.7q9.2 0 18.3-0.3c7.3-15.3 30.8-38.2 43.4-44.9 9.1-4.9 32.6-17.1 52.3-23.2 9.2-2.9 18-4.5 25.1-5.7q0.8-0.2 1.7-0.3c-1.5-3-3.5-7.1-5.3-10.7-4.2-8.5-9-18.3-12.8-26.7z"/>
				<g id="&lt;Group&gt;">
					<path id="&lt;Path&gt;" class="s2" d="m850.3 382.3q6.9-9.8 13.8-19.5c-1.8 0-3.6-0.1-5.4-0.1q-24.7 0.1-49 2 0.5 3.7 1 7.5c13.6 1.9 26.7 5.4 39.6 10.1z"/>
					<path id="&lt;Path&gt;" class="s2" d="m278.4 836c5.8 1.4 10.6 2.5 14.7 3.5-2-6.4-2.1-12.8-0.5-18.2 3.2-11.4 12.9-18.7 24.9-18.7 6.4 0 13.2 2.1 20 6.2l3 1.9c5.1 3.2 10.3 6.4 15.5 9.6 36.4-106.7 105.8-198.2 196-262.3 40.4-71.2 100-133.1 172.3-168.6q0.4-6.1 0.8-12.4c-231.2 50.3-415.4 228.3-474.7 456.1q2.1-0.1 4.3-0.1c7.3 0 15.3 1 23.7 3z"/>
					<path id="&lt;Path&gt;" class="s2" d="m1159.1 553.7c2.4-7.8 5.2-14.8 8.3-20.6 8.8-16.7 20.9-26.3 33.3-26.3 6.8 0 13 3 17.5 8.4 3 3.7 6.1 9.7 6.5 19.2 2.9-4.4 6.3-9.3 10.4-14.7 5.4-7.2 11.6-13 18.3-17.2-84.9-68.7-188-115.8-300.8-132.8-10.2 19.8-20.1 39.8-29.2 60.1 9.3 11.1 16.3 23.7 21.3 37.4 78.5 12.9 151.4 43.1 214.4 86.5z"/>
					<path id="&lt;Path&gt;" class="s2" d="m1335.5 582.3c-6.4 24.8-20.4 60.8-44.9 86.7q-0.8 0.8-1.6 1.6-1.1 1.2-2.3 2.4c-6.4 6-13.4 11.4-21.2 15.8-18.4 10.3-31.5 13.6-40.1 15.8-1.7 0.4-3.6 0.9-4.9 1.3-5.3 7.2-19.8 23.8-41.1 47.7l-4.2 4.7c-36.9 41.6-99.8 71.7-118.2 80-23.8 10.7-62.8 19.7-94.7 22.2l-578.1 368.3c-36-71.6-56.4-152.3-56.4-237.7q0-13.3 0.7-26.5c-17-1.1-34.5-3.5-50-7-19-4.3-34.4-10-46.2-16.8-1.3 16.6-2 33.4-2 50.3 0 230.2 124.4 431.8 309.6 541.3 11.2-13.5 31.8-29.2 43.1-33.8 9.7-3.9 34.3-13.5 54.5-17.6 4.2-0.9 8.3-1.5 12.2-1.9-85-36.6-158.6-94.8-213.9-167.6l892.2-568.3c39.3 74 61.6 158.4 61.6 247.9 0 222.7-137.9 413.8-332.8 492.5 4.5 14 11.8 27.3 18.3 39 5.7 10.2 12.2 14.7 14.5 15.2 11.9 3 21.1 6.8 27 9.4 6 2.6 10.1 6.6 13.1 10.8 211.2-101.4 357.4-317.4 357.4-566.9 0-156-57.2-298.8-151.6-408.8z"/>
				</g>
			</g>
			<g id="&lt;Group&gt;">
				<g id="&lt;Group&gt;">
					<path id="&lt;Compound Path&gt;" fill-rule="evenodd" class="s1" d="m979 281.1c-15.2 26.8-60.9 114.5-76.4 150.4 8.8 8.1 15.5 16.7 19.5 25.2 17 36.9 16.5 88.9 3.7 130.1-12.7 41.1-32.1 63.3-51.5 83.7-28.4 29.8-70.4 48.4-101.7 52.9-8.8 1.3-21.2 0.2-32.7-0.8 10.3-6.7 27.7-20.2 38.7-31.1 24.8-24.7 26.6-36.9 26.6-36.9-33.1 33.7-112.4 86-140.8 96-15.2 5.3-49.7 12-71.7 10-18.6-1.6-42.5-11.4-60.3-29.1-18-18-11.8-49.7-9-65.3 2.9-15.6 11.4-39.7 18.5-53.9 7.5-15.1 30.7-62.4 48.7-88 21.3-30.2 61.6-72.1 88.4-90.7 20.3-14.1 39.9-26.4 59.5-35.1 1.4-34.2 3.9-71.4 4.4-82.7 0.7-14.5 7.9-66.6-16.6-94.4-20.5-24.4-59.1-39.7-91-45.3-31.8-7-84.1-9.3-114.9-22.4-29.5-12.5-40.5-79.7 22.8-57.7 23 6.6 51.2 20.3 72.3 28.8 32.7 11.5 73.7 25.2 104.6 37.9 39.8 13.9 57.9 19.3 59.9 62.5 1.3 29 8.8 117.9 14.7 160.5 19.4 0.5 40.5 6.1 60 14.8 18.5-26.7 38.4-53.9 44.5-62.6 8.4-11.9 42.3-52.1 36.5-88.7-4.3-31.6-28.7-65.2-52.7-87-23.1-22.9-66.1-52.8-85.1-80.3-18.3-26.4 8.4-89 50.1-36.6 15.9 17.9 32.4 44.5 45.7 63.1 21.5 27.1 48.8 60.6 68.2 87.9 26.1 32.9 38.5 47.2 17.1 84.8zm-157.9 177.3c-15.4-12.5-43.3-11.8-65.9 2.3-23.2 14.5-37.3 31.7-46.2 53.7-7.7 19.3-7.5 46.8 8.2 56.4 25.9 16 57.3 13.4 72.2 6.7 18.2-8 36.2-22.1 46.1-53.2 6.2-19.1 4.5-53.1-14.4-65.9z"/>
				</g>
				<path id="&lt;Path&gt;" class="s2" d="m792 508.7c-7.1 0-12.9-5.8-12.9-12.9 0-4.7 2.5-8.8 6.3-11-4.3-2.9-9.2-4.5-14.4-4.5-16.6 0-30 16.4-30 36.5 0 20.2 13.4 36.6 30 36.6 16.6 0 30-16.4 30-36.6 0-3.7-0.5-7.3-1.3-10.7-2.2 1.6-4.8 2.6-7.7 2.6z"/>
			</g>
		</g>
		<g id="&lt;Group&gt;">
			<g id="&lt;Group&gt;">
				<g id="&lt;Group&gt;">
				</g>
				<g id="&lt;Group&gt;">
				</g>
				<g id="&lt;Group&gt;">
				</g>
			</g>
			<g id="&lt;Group&gt;">
				<g id="&lt;Group&gt;">
				</g>
				<g id="&lt;Group&gt;">
				</g>
				<g id="&lt;Group&gt;">
				</g>
				<g id="&lt;Group&gt;">
				</g>
			</g>
			<g id="&lt;Group&gt;">
				<g id="&lt;Group&gt;">
				</g>
			</g>
		</g>
	</g>
</svg>